<?xml version="1.0" encoding="UTF-8"?>
<svg id="Layer_2" data-name="Layer 2" xmlns="http://www.w3.org/2000/svg" xmlns:xlink="http://www.w3.org/1999/xlink" version="1.1" viewBox="0 0 287 42.7">
  <defs>
    <style>
      .cls-1 {
        fill: #0875f2;
        stroke-width: 0px;
      }
    </style>
  </defs>
  <g>
    <path class="cls-1" d="M10.9,10.2H.8V1h31.2v9.2h-10.1v27h-11.1V10.2h.1Z"/>
    <path class="cls-1" d="M41.3,25.3c-1.2.6-2.6.9-3.9,1.2-2.2.5-3.4,1-3.4,2.8s1.3,2.4,3.1,2.4,4-1.3,4.2-4.1v-2.4h0ZM50.8,31.3c0,2,0,4.2,1.2,5.9h-10.2c-.2-.8-.4-1.8-.3-2.5h0c-2.1,2.4-5.2,3.1-8.4,3.1-5,0-9.2-2.5-9.2-8,0-8.3,9.7-7.9,14.8-8.8,1.4-.2,2.7-.6,2.7-2.3s-1.6-2.4-3.3-2.4c-3.1,0-3.7,1.5-3.8,2.7h-9.3c.3-7.4,7.3-8.6,13.5-8.6,12.5,0,12.4,5.3,12.4,10.3v10.8-.2Z"/>
    <path class="cls-1" d="M66.2,17.6c-3.6,0-4.4,3.4-4.4,6.4s.8,6.5,4.4,6.5,4.4-3.4,4.4-6.5-.8-6.5-4.4-6.5M52.3.9h10v13h0c1.5-2.2,4.2-3.5,7.2-3.5,8.8,0,11.1,7.5,11.1,13.7s-3.7,13.9-11.1,13.8c-4.9,0-6.4-1.9-7.7-3.6h0v2.8h-9.4s0-36.2,0-36.2Z"/>
    <path class="cls-1" d="M94.6,8.2c-3.8,0-4.3,3.7-4.3,6.4s.5,6.5,4.3,6.5,4.3-3.7,4.3-6.5-.5-6.5-4.3-6.5M94.5,28.5c-9.8,0-14.2-6.6-14.2-13.9S84.8.9,94.7,1c9.8,0,14.2,6.5,14.2,13.8s-4.5,13.8-14.4,13.7"/>
    <path class="cls-1" d="M119.4,8.2c-3.8,0-4.3,3.7-4.3,6.4s.5,6.5,4.3,6.5,4.3-3.7,4.3-6.5-.5-6.5-4.3-6.5M119.3,28.5c-9.8,0-14.2-6.6-14.2-13.9S109.6.9,119.5,1c9.8,0,14.2,6.5,14.2,13.8s-4.5,13.8-14.4,13.7"/>
    <path class="cls-1" d="M134.7,1h9.8v36.2h-9.8V1Z"/>
    <path class="cls-1" d="M162.7,25.2c-1.2.6-2.6.9-3.9,1.2-2.2.5-3.4,1-3.4,2.8s1.3,2.4,3.1,2.4,4-1.3,4.2-4.1v-2.4h0ZM172.4,31.2c0,2-.1,4.3,1,6h-10c-.2-.7-.4-1.9-.4-2.6h-.1c-2.1,2.4-5.2,3.1-8.4,3.1-5.1,0-9.2-2.5-9.2-8,0-8.3,9.7-7.9,14.8-8.8,1.4-.2,2.7-.6,2.7-2.3s-1.6-2.4-3.3-2.4c-3.1,0-3.7,1.5-3.7,2.7h-9.3c.3-7.4,7.3-8.6,13.5-8.6,12.5,0,12.4,5.3,12.4,10.3v10.8-.2Z"/>
    <path class="cls-1" d="M84,28.5c7.1,3.2,14.5,4.6,22.5,4.6s14.8-1.5,22.9-4.6v8.7c-7.3,3.6-15.1,5.5-23,5.5s-14.7-1.8-22.5-5.5v-8.7h.1Z"/>
  </g>
  <g>
    <path class="cls-1" d="M198.9,1.1v2h-16.3v15.1h14.2v2h-14.2v17.1h-2.3V1.1h18.6Z"/>
    <path class="cls-1" d="M227,24.1h-24.1c0,2.5.6,4.6,1.6,6.3s2.4,3,4.1,3.9c1.7.9,3.5,1.3,5.5,1.3s5-.7,6.9-2c1.8-1.4,3-3.2,3.5-5.5h2.4c-.5,2.8-2,5.1-4.2,6.9-2.3,1.8-5.1,2.6-8.6,2.6s-4.9-.6-7-1.7c-2.1-1.2-3.7-2.8-4.8-5-1.2-2.2-1.7-4.7-1.7-7.6s.6-5.4,1.7-7.6c1.1-2.2,2.7-3.8,4.8-5,2.1-1.1,4.4-1.7,7-1.7s5,.6,7,1.7c2,1.1,3.5,2.7,4.5,4.6,1,1.9,1.5,3.9,1.5,6.1s0,2.2-.1,2.8h0ZM223.5,15.9c-1-1.7-2.3-3-4-3.8s-3.5-1.3-5.4-1.3-3.8.4-5.4,1.3c-1.7.8-3,2.1-4.1,3.8-1,1.7-1.6,3.8-1.7,6.3h21.9c.1-2.5-.3-4.6-1.3-6.3Z"/>
    <path class="cls-1" d="M256,24.1h-24.1c0,2.5.6,4.6,1.6,6.3s2.4,3,4.1,3.9c1.7.9,3.5,1.3,5.5,1.3s5-.7,6.9-2c1.8-1.4,3-3.2,3.5-5.5h2.4c-.5,2.8-2,5.1-4.2,6.9-2.3,1.8-5.1,2.6-8.6,2.6s-4.9-.6-7-1.7c-2.1-1.2-3.7-2.8-4.8-5-1.2-2.2-1.7-4.7-1.7-7.6s.6-5.4,1.7-7.6c1.1-2.2,2.7-3.8,4.8-5,2.1-1.1,4.4-1.7,7-1.7s5,.6,7,1.7c2,1.1,3.5,2.7,4.5,4.6,1,1.9,1.5,3.9,1.5,6.1s0,2.2-.1,2.8h0ZM252.5,15.9c-1-1.7-2.3-3-4-3.8s-3.5-1.3-5.4-1.3-3.8.4-5.4,1.3c-1.7.8-3,2.1-4.1,3.8-1,1.7-1.6,3.8-1.7,6.3h21.9c.1-2.5-.3-4.6-1.3-6.3Z"/>
    <path class="cls-1" d="M260.3,15.6c1.1-2.2,2.7-3.8,4.8-5,2-1.2,4.4-1.7,7-1.7s5.3.7,7.4,2.1,3.6,3.3,4.4,5.5V-.9h2.3v38h-2.3v-7.4c-.8,2.3-2.3,4.2-4.3,5.6-2.1,1.5-4.6,2.2-7.5,2.2s-4.9-.6-7-1.8c-2-1.2-3.6-2.9-4.8-5-1.1-2.2-1.7-4.7-1.7-7.6s.6-5.4,1.7-7.6h0ZM282.3,16.7c-1-1.9-2.4-3.3-4.1-4.3s-3.7-1.5-5.9-1.5-4.2.5-6,1.5c-1.7,1-3,2.4-4,4.2s-1.4,4-1.4,6.6.5,4.7,1.4,6.6c1,1.8,2.3,3.3,4,4.3s3.7,1.5,5.9,1.5,4.1-.5,5.9-1.5,3.1-2.4,4.1-4.3,1.5-4,1.5-6.5-.5-4.6-1.5-6.4v-.2Z"/>
  </g>
  <g id="e5rd6W.tif">
    <image id="Layer_0" data-name="Layer 0" width="372" height="262" transform="translate(-46.4 68.4) scale(.5)" xlink:href="lgo-taboola_feed-v08-1.png"/>
  </g>
</svg>