<svg xmlns="http://www.w3.org/2000/svg" height="40" width="40" viewBox="0 0 40 40" aria-hidden="true" focusable="false"><path fill="#163760" d="M0 5a5 5 0 0 1 5-5h30a5 5 0 0 1 5 5v30a5 5 0 0 1-5 5H5a5 5 0 0 1-5-5V5Z"/><path fill="#fff" d="m13.7 12.4.56.43c4.66 3.46 4.7 5.9 4.7 5.9v5.08a21.45 21.45 0 0 1-3.62-1.44v4.05a.5.5 0 0 1-.5.5h-1.9v3.74h11.87v-3.75H23a.5.5 0 0 1-.5-.5V23.2h5.18v-3.44H22.5v-3.6l4.68-.02c.28 0 .5.22.5.5v.72h4.7V12.4h-18.7Z"/><path fill="#207CF3" d="M22.51 24.78c.57.1 2.16.93 2.85 1.49a36.42 36.42 0 0 1 3.88 3.85l.88.54s-2.43-2.89-4-4.45l-2.91-2.92-.1-.1h-.6v1.59Z"/><path fill="#207CF3" d="M14.26 12.83c-.2-.15-.38-.3-.57-.43C9.5 9.2 8.08 7.5 7.71 6.37c0 0-1.28 4.62 2.16 8.31 0 0-.84-.17-1.64-.49 0 0 1.43 3.55 5.32 5.43 0 0-1 .03-1.87-.07 0 0 .92 1.4 3.66 2.81.97.5 2.16 1 3.63 1.45v-5.08s-.05-2.44-4.7-5.9Z"/></svg>
